<svg id="Layer_1" data-name="Layer 1" xmlns="http://www.w3.org/2000/svg" viewBox="0 0 38.14 38.14"><defs><style>.cls-1,.cls-2{fill:#fff;}.cls-1{stroke:#fff;stroke-miterlimit:10;}</style></defs><title>head-fb</title><path class="cls-1" d="M21,38.59A18.57,18.57,0,1,1,39.53,20,18.59,18.59,0,0,1,21,38.59ZM21,2.11A17.91,17.91,0,1,0,38.87,20,17.93,17.93,0,0,0,21,2.11Z" transform="translate(-1.89 -0.96)"/><path id="fbk" class="cls-2" d="M17.72,18h1.64V16.37a4.25,4.25,0,0,1,.53-2.45,2.91,2.91,0,0,1,2.54-1.19,10.29,10.29,0,0,1,2.93.29L25,15.45a5.53,5.53,0,0,0-1.32-.2,1,1,0,0,0-1.21.86V18H25l-0.18,2.37H22.43v8.23H19.36V20.33H17.72V18Z" transform="translate(-1.89 -0.96)"/></svg>