<svg id="Layer_1" data-name="Layer 1" xmlns="http://www.w3.org/2000/svg" viewBox="0 0 38.14 38.14"><defs><style>.cls-1,.cls-2{fill:#fff;}.cls-1{stroke:#fff;stroke-miterlimit:10;}</style></defs><title>head-youtube</title><path class="cls-1" d="M21.16,38.59A18.57,18.57,0,1,1,39.73,20,18.59,18.59,0,0,1,21.16,38.59Zm0-36.48A17.91,17.91,0,1,0,39.07,20,17.93,17.93,0,0,0,21.16,2.11Z" transform="translate(-2.09 -0.96)"/><path id="player" class="cls-2" d="M24.23,20l-5.18,3V17Zm4.84,2.82V17.2a2.67,2.67,0,0,0-2.73-2.73H16a2.67,2.67,0,0,0-2.73,2.73v5.66A2.67,2.67,0,0,0,16,25.58H26.34a2.67,2.67,0,0,0,2.73-2.73" transform="translate(-2.09 -0.96)"/></svg>