<svg id="Layer_1" data-name="Layer 1" xmlns="http://www.w3.org/2000/svg" viewBox="0 0 38.14 38.14"><defs><style>.cls-1,.cls-2{fill:#fff;}.cls-1{stroke:#fff;stroke-miterlimit:10;}</style></defs><title>head-rss</title><path class="cls-1" d="M20.42,38.59A18.57,18.57,0,1,1,39,20,18.59,18.59,0,0,1,20.42,38.59Zm0-36.48A17.91,17.91,0,1,0,38.33,20,17.93,17.93,0,0,0,20.42,2.11Z" transform="translate(-1.36 -0.96)"/><path id="rss" class="cls-2" d="M17.34,24a2.08,2.08,0,0,1,0,3h0a2.1,2.1,0,1,1-3-3h0A2.1,2.1,0,0,1,17.34,24Zm0,0h0Zm-3,3h0Zm-0.61-9.82v3a7.42,7.42,0,0,1,7.41,7.42h3A10.47,10.47,0,0,0,13.76,17.18Zm0-5.38v3a12.83,12.83,0,0,1,12.8,12.81h3A15.86,15.86,0,0,0,13.76,11.8Z" transform="translate(-1.36 -0.96)"/></svg>