<svg id="Layer_1" data-name="Layer 1" xmlns="http://www.w3.org/2000/svg" viewBox="0 0 38.14 38.14"><defs><style>.cls-1,.cls-2{fill:#fff;}.cls-1{stroke:#fff;stroke-miterlimit:10;}</style></defs><title>twitter-head</title><path class="cls-1" d="M19.66,37.59A18.57,18.57,0,1,1,38.23,19,18.59,18.59,0,0,1,19.66,37.59Zm0-36.48A17.91,17.91,0,1,0,37.57,19,17.93,17.93,0,0,0,19.66,1.11Z" transform="translate(-0.59 0.04)"/><path id="twit" class="cls-2" d="M30.19,13.92a7.59,7.59,0,0,1-2.18.6,3.8,3.8,0,0,0,1.67-2.1,7.61,7.61,0,0,1-2.41.92,3.79,3.79,0,0,0-6.46,3.46,10.75,10.75,0,0,1-7.81-4,3.79,3.79,0,0,0,1.17,5.06,3.78,3.78,0,0,1-1.72-.47v0a3.79,3.79,0,0,0,3,3.72,3.81,3.81,0,0,1-1,.13,3.76,3.76,0,0,1-.71-0.07,3.79,3.79,0,0,0,3.54,2.63,7.66,7.66,0,0,1-5.61,1.57,10.78,10.78,0,0,0,16.59-9.08q0-.25,0-0.49A7.7,7.7,0,0,0,30.19,13.92Z" transform="translate(-0.59 0.04)"/></svg>